<?xml version="1.0" encoding="iso-8859-1"?>
<!-- Generator: Adobe Illustrator 16.0.0, SVG Export Plug-In . SVG Version: 6.00 Build 0)  -->
<!DOCTYPE svg PUBLIC "-//W3C//DTD SVG 1.1//EN" "http://www.w3.org/Graphics/SVG/1.1/DTD/svg11.dtd">
<svg version="1.1" id="Capa_1" xmlns="http://www.w3.org/2000/svg" xmlns:xlink="http://www.w3.org/1999/xlink" x="0px" y="0px"
	 width="512px" height="512px" viewBox="0 0 512 512" style="enable-background:new 0 0 512 512;" xml:space="preserve">
<g>
	<path d="M256,0C114.609,0,0,114.609,0,256c0,141.391,114.609,256,256,256c141.391,0,256-114.609,256-256
		C512,114.609,397.391,0,256,0z M256,472c-119.297,0-216-96.703-216-216S136.703,40,256,40s216,96.703,216,216S375.297,472,256,472z
		"/>
	<path d="M256,128c-70.688,0-128,57.312-128,128c0,70.688,57.312,128,128,128c70.688,0,128-57.312,128-128
		C384,185.312,326.688,128,256,128z M376,256c0,4.297-0.25,8.531-0.688,12.719C375.766,264.531,376,260.297,376,256
		s-0.234-8.531-0.688-12.719C375.75,247.469,376,251.703,376,256z M375.031,241.484c-0.438-3.625-0.984-7.234-1.75-10.734
		C374.047,234.266,374.594,237.859,375.031,241.484z M373.094,230c-1.781-7.922-4.312-15.562-7.547-22.812
		C368.781,214.438,371.344,222.062,373.094,230z M365.531,207.125l-50.719,23.656c-6.47-15.062-18.547-27.125-33.595-33.594
		l23.642-50.719C331.812,158.516,353.484,180.188,365.531,207.125z M312,256c0,7.75-1.578,15.125-4.422,21.844
		c-5.672,13.359-16.375,24.062-29.734,29.719C271.125,310.422,263.75,312,256,312s-15.125-1.578-21.844-4.422
		c-13.359-5.672-24.062-16.375-29.719-29.734C201.578,271.125,200,263.75,200,256s1.578-15.125,4.438-21.844
		c5.656-13.359,16.359-24.062,29.719-29.719C240.875,201.578,248.25,200,256,200s15.125,1.578,21.844,4.422
		c13.359,5.672,24.062,16.375,29.734,29.734C310.422,240.875,312,248.25,312,256z M270.5,136.969c3.641,0.438,7.234,1,10.766,1.75
		C277.734,137.953,274.125,137.406,270.5,136.969z M281.938,138.891c7.97,1.766,15.625,4.328,22.922,7.578
		C297.562,143.219,289.891,140.672,281.938,138.891z M268.719,136.688C264.531,136.25,260.297,136,256,136s-8.531,0.25-12.719,0.688
		C247.469,136.25,251.703,136,256,136S264.531,136.25,268.719,136.688z M241.5,136.969c-3.625,0.438-7.234,0.984-10.75,1.75
		C234.266,137.969,237.875,137.406,241.5,136.969z M230.047,138.891c-7.938,1.781-15.594,4.312-22.859,7.562
		C214.453,143.203,222.094,140.656,230.047,138.891z M207.125,146.469l23.656,50.719c-15.062,6.469-27.125,18.531-33.594,33.594
		l-50.719-23.656c-3.25,7.297-5.797,14.969-7.578,22.938C147.156,192.625,172.891,161.781,207.125,146.469z M136.688,243.281
		C136.25,247.469,136,251.703,136,256s0.25,8.531,0.688,12.719C136.25,264.531,136,260.297,136,256S136.25,247.469,136.688,243.281z
		 M138.719,230.734c-0.766,3.516-1.312,7.125-1.75,10.766C137.406,237.859,137.969,234.266,138.719,230.734z M146.469,304.875
		c-3.25-7.312-5.828-14.984-7.594-22.969C140.656,289.875,143.219,297.562,146.469,304.875z M138.719,281.266
		c-0.75-3.531-1.312-7.141-1.75-10.781C137.406,274.125,137.953,277.734,138.719,281.266z M146.469,304.875l50.719-23.656
		c6.469,15.062,18.547,27.125,33.594,33.578l-23.656,50.734C180.188,353.484,158.531,331.828,146.469,304.875z M241.484,375.031
		c-3.625-0.438-7.219-0.984-10.734-1.75C234.25,374.047,237.859,374.594,241.484,375.031z M230,373.094
		c-7.938-1.75-15.562-4.312-22.812-7.547C214.438,368.781,222.078,371.312,230,373.094z M243.281,375.312
		C247.469,375.766,251.703,376,256,376s8.531-0.234,12.719-0.688C264.531,375.75,260.297,376,256,376
		S247.469,375.75,243.281,375.312z M270.531,375.031c3.625-0.438,7.203-0.984,10.719-1.75
		C277.734,374.047,274.156,374.594,270.531,375.031z M282.062,373.078c3.844-0.859,7.625-1.875,11.312-3.094
		C289.688,371.203,285.906,372.219,282.062,373.078z M293.438,369.953c3.875-1.266,7.656-2.75,11.359-4.391
		C301.094,367.219,297.312,368.688,293.438,369.953z M304.875,365.531l-23.656-50.734c15.062-6.469,27.125-18.531,33.594-33.578
		l50.72,23.641C353.484,331.812,331.828,353.469,304.875,365.531z M375.047,270.5c-0.453,3.641-1,7.234-1.766,10.766
		C374.047,277.734,374.594,274.125,375.047,270.5z M373.109,281.938c-1.75,7.97-4.312,15.625-7.578,22.922
		C368.781,297.562,371.328,289.891,373.109,281.938z"/>
</g>
<g>
</g>
<g>
</g>
<g>
</g>
<g>
</g>
<g>
</g>
<g>
</g>
<g>
</g>
<g>
</g>
<g>
</g>
<g>
</g>
<g>
</g>
<g>
</g>
<g>
</g>
<g>
</g>
<g>
</g>
</svg>
