<?xml version="1.0" encoding="iso-8859-1"?>
<!-- Generator: Adobe Illustrator 16.0.0, SVG Export Plug-In . SVG Version: 6.00 Build 0)  -->
<!DOCTYPE svg PUBLIC "-//W3C//DTD SVG 1.1//EN" "http://www.w3.org/Graphics/SVG/1.1/DTD/svg11.dtd">
<svg version="1.1" id="Capa_1" xmlns="http://www.w3.org/2000/svg" xmlns:xlink="http://www.w3.org/1999/xlink" x="0px" y="0px"
	 width="612px" height="612px" viewBox="0 0 612 612" style="enable-background:new 0 0 612 612;" xml:space="preserve">
<g>
	<g>
		<path d="M306,0C136.994,0,0,136.994,0,306c0,169.007,136.994,306,306,306c169.007,0,306-136.993,306-306
			C612,136.994,475.007,0,306,0z M306,564.188c-142.597,0-258.188-115.59-258.188-258.188c0-142.597,115.59-258.188,258.188-258.188
			c142.598,0,258.188,115.59,258.188,258.188C564.188,448.598,448.598,564.188,306,564.188z"/>
		<path d="M389.56,365.99c-19.125-3.268-45.31-21.814-45.31-29.863v-20.34c0-7.583,10.272-21.777,14.643-34.851
			c0.411-1.232,3.045,0.187,5.604-2.914c4.818-5.939,5.528-14.979,6.631-19.088c1.756-6.462-6.089-6.724-6.089-6.724
			s5.846-33.917,0.653-55.32C358.65,167.718,320.867,153,306.075,153s-52.557,14.717-59.616,43.891
			c-5.173,21.403,0.784,55.32,0.784,55.32s-7.564,0.262-5.827,6.724c1.121,4.109,2.372,13.148,7.209,19.088
			c2.54,3.101,4.09,1.681,4.501,2.914c4.37,13.073,14.624,27.268,14.624,34.851v20.34c0,8.049-26.204,26.596-45.329,29.863
			c-24.541,4.184-36.7,21.161-30.948,63.501c2.876,21.143,58.683,30.238,113.966,29.454c55.283,0.784,111.931-8.312,114.806-29.454
			C426.017,387.151,414.139,370.174,389.56,365.99z"/>
		<polygon points="457.354,206.411 443.833,192.89 430.312,206.411 416.79,192.89 403.268,206.411 416.79,219.933 403.268,233.455 
			416.789,246.977 430.312,233.454 443.834,246.977 457.355,233.455 443.833,219.933 		"/>
	</g>
</g>
<g>
</g>
<g>
</g>
<g>
</g>
<g>
</g>
<g>
</g>
<g>
</g>
<g>
</g>
<g>
</g>
<g>
</g>
<g>
</g>
<g>
</g>
<g>
</g>
<g>
</g>
<g>
</g>
<g>
</g>
</svg>
