<?xml version="1.0" encoding="iso-8859-1"?>
<!-- Generator: Adobe Illustrator 16.0.0, SVG Export Plug-In . SVG Version: 6.00 Build 0)  -->
<!DOCTYPE svg PUBLIC "-//W3C//DTD SVG 1.1//EN" "http://www.w3.org/Graphics/SVG/1.1/DTD/svg11.dtd">
<svg version="1.1" id="Capa_1" xmlns="http://www.w3.org/2000/svg" xmlns:xlink="http://www.w3.org/1999/xlink" x="0px" y="0px"
	 width="512px" height="512px" viewBox="0 0 512 512" style="enable-background:new 0 0 512 512;" xml:space="preserve">
<g>
	<g>
		<path d="M256,0C114.609,0,0,114.609,0,256c0,141.391,114.609,256,256,256c141.391,0,256-114.609,256-256
			C512,114.609,397.391,0,256,0z M256,472c-119.297,0-216-96.703-216-216S136.703,40,256,40s216,96.703,216,216S375.297,472,256,472
			z"/>
		<path d="M310.875,254.734c-40.438,0-73.172,22.079-73.172,49.234c0,12.095,10.172,25.875,20.922,34.47L248.188,368l31.703-19.469
			c9.453,2.969,19.892,4.656,30.984,4.656c40.391,0,73.125-22,73.125-49.22C384,276.812,351.266,254.734,310.875,254.734z"/>
		<path d="M256,144c-70.688,0-128,40.234-128,89.891c0,22.062,17.781,47.234,36.562,62.921l-18.266,53.97l55.547-35.562
			c7.25,2.375,14.938,4.25,22.844,5.656c-3.234-6.344-5.25-12.938-5.25-19.125c0-35.483,40.938-64.219,91.438-64.219
			c27.062,0,51.188,8.422,67.938,21.577c3.312-8,5.188-16.468,5.188-25.218C384,184.234,326.688,144,256,144z"/>
	</g>
</g>
<g>
</g>
<g>
</g>
<g>
</g>
<g>
</g>
<g>
</g>
<g>
</g>
<g>
</g>
<g>
</g>
<g>
</g>
<g>
</g>
<g>
</g>
<g>
</g>
<g>
</g>
<g>
</g>
<g>
</g>
</svg>
