<?xml version="1.0" encoding="iso-8859-1"?>
<!-- Generator: Adobe Illustrator 16.0.0, SVG Export Plug-In . SVG Version: 6.00 Build 0)  -->
<!DOCTYPE svg PUBLIC "-//W3C//DTD SVG 1.1//EN" "http://www.w3.org/Graphics/SVG/1.1/DTD/svg11.dtd">
<svg version="1.1" id="Capa_1" xmlns="http://www.w3.org/2000/svg" xmlns:xlink="http://www.w3.org/1999/xlink" x="0px" y="0px"
	 width="512px" height="512px" viewBox="0 0 512 512" style="enable-background:new 0 0 512 512;" xml:space="preserve">
<g>
	<g>
		<rect x="119.5" y="296.5" width="112" height="64"/>
		<polygon points="119.5,232.5 135.5,232.5 135.5,184.5 359.5,184.5 359.5,344.5 327.5,344.5 327.5,360.5 375.5,360.5 375.5,168.5 
			119.5,168.5 		"/>
		<polygon points="119.5,280.5 135.5,280.5 135.5,264.5 295.5,264.5 295.5,344.5 247.5,344.5 247.5,360.5 311.5,360.5 311.5,248.5 
			119.5,248.5 		"/>
		<path d="M256,0C114.625,0,0,114.609,0,256c0,141.391,114.625,256,256,256c141.406,0,256-114.609,256-256
			C512,114.609,397.406,0,256,0z M256,472c-119.281,0-216-96.703-216-216S136.719,40,256,40c119.312,0,216,96.703,216,216
			S375.312,472,256,472z"/>
	</g>
</g>
<g>
</g>
<g>
</g>
<g>
</g>
<g>
</g>
<g>
</g>
<g>
</g>
<g>
</g>
<g>
</g>
<g>
</g>
<g>
</g>
<g>
</g>
<g>
</g>
<g>
</g>
<g>
</g>
<g>
</g>
</svg>
