<?xml version="1.0" encoding="iso-8859-1"?>
<!-- Generator: Adobe Illustrator 16.0.0, SVG Export Plug-In . SVG Version: 6.00 Build 0)  -->
<!DOCTYPE svg PUBLIC "-//W3C//DTD SVG 1.1//EN" "http://www.w3.org/Graphics/SVG/1.1/DTD/svg11.dtd">
<svg version="1.1" id="Capa_1" xmlns="http://www.w3.org/2000/svg" xmlns:xlink="http://www.w3.org/1999/xlink" x="0px" y="0px"
	 width="512px" height="512px" viewBox="0 0 512 512" style="enable-background:new 0 0 512 512;" xml:space="preserve">
<g>
	<path d="M256,0C114.609,0,0,114.609,0,256c0,141.391,114.609,256,256,256c141.391,0,256-114.609,256-256
		C512,114.609,397.391,0,256,0z M256,472c-119.297,0-216-96.703-216-216S136.703,40,256,40s216,96.703,216,216S375.297,472,256,472z
		"/>
	<g>
		<g>
			<path d="M208.078,192.031c-0.062-0.25,0-16.016,0-16.016V128l-63.891,64.031h47.922
				C192.109,192.031,208.156,192.25,208.078,192.031z M353.438,160.125c-4.812-7.984-29.952-13.375-43-13.375
				c-13.03,0-33.625,0-33.625,0s-11.233-15.734-36.516-18.219c-20.406-2-16.234,6.141-16.234,15.469v64.031h-63.906
				c0,0-16.156-4.297-16.156,6.844c0,20.672,2.75,87.969,47.375,94.641c52.781,7.906,60.734-5.108,60.734-8
				c0-11.983,2.047-26,2.047-26s20.469,24.078,43.78,23.203c22.892-0.875,27.703,14.188,27.703,27.484c0,13.312,0,24.703,0,24.703
				s-0.094,9.078-13.827,9.078c-13.72,0-25.392,0-25.392,0s-9.609-1.017-9.609-11.017c0-9.983,6.047-12.655,11.547-12.655
				c5.484,0,9.609,0.672,9.609,0.672v-18c0,0-43.125-6.017-43.125,26.672C254.844,378.297,272,384,290.531,384s30.203,0,30.203,0
				S368,383.516,368,279.531C368,175.546,358.234,168.125,353.438,160.125z M298.438,250.219c0,0,3.422-13.344,13.72-13.344
				c10.297,0,20.188,20.969,20.188,20.969S310.781,250.219,298.438,250.219z"/>
		</g>
	</g>
</g>
<g>
</g>
<g>
</g>
<g>
</g>
<g>
</g>
<g>
</g>
<g>
</g>
<g>
</g>
<g>
</g>
<g>
</g>
<g>
</g>
<g>
</g>
<g>
</g>
<g>
</g>
<g>
</g>
<g>
</g>
</svg>
