<?xml version="1.0" encoding="iso-8859-1"?>
<!-- Generator: Adobe Illustrator 16.0.0, SVG Export Plug-In . SVG Version: 6.00 Build 0)  -->
<!DOCTYPE svg PUBLIC "-//W3C//DTD SVG 1.1//EN" "http://www.w3.org/Graphics/SVG/1.1/DTD/svg11.dtd">
<svg version="1.1" id="Capa_1" xmlns="http://www.w3.org/2000/svg" xmlns:xlink="http://www.w3.org/1999/xlink" x="0px" y="0px"
	 width="512px" height="512px" viewBox="0 0 512 512" style="enable-background:new 0 0 512 512;" xml:space="preserve">
<g>
	<path d="M256,0C114.609,0,0,114.609,0,256c0,141.391,114.609,256,256,256c141.391,0,256-114.609,256-256
		C512,114.609,397.391,0,256,0z M256,472c-119.297,0-216-96.703-216-216S136.703,40,256,40s216,96.703,216,216S375.297,472,256,472z
		"/>
	<path d="M314.844,341.454C346.75,321.126,368,284.798,368,243.329c0-63.688-50.156-115.328-112-115.328
		c-61.875,0-112,51.641-112,115.328c0,63.703,50.125,115.344,112,115.344c9.094,0,17.938-1.155,26.406-3.266
		c10.625,19.655,26.812,33.562,61.203,26.905v-19.547C343.609,362.768,321.562,357.143,314.844,341.454z M314.062,258.579
		c0,19.266-6.031,36.733-15.828,49.655c-12.312-13.312-31.609-24.266-56.094-22.875v2.345v20.328c0,0,16.609,0.672,27.984,20.516
		c-4.267,1.281-8.703,1.97-13.281,1.97c-31.594,0-57.188-32.203-57.188-71.938c0-5.094,0-24.609,0-29.703
		c0-39.734,25.594-71.938,57.188-71.938c31.609,0,57.22,32.203,57.22,71.938C314.062,233.97,314.062,253.485,314.062,258.579z"/>
</g>
<g>
</g>
<g>
</g>
<g>
</g>
<g>
</g>
<g>
</g>
<g>
</g>
<g>
</g>
<g>
</g>
<g>
</g>
<g>
</g>
<g>
</g>
<g>
</g>
<g>
</g>
<g>
</g>
<g>
</g>
</svg>
