<?xml version="1.0" encoding="iso-8859-1"?>
<!-- Generator: Adobe Illustrator 16.0.0, SVG Export Plug-In . SVG Version: 6.00 Build 0)  -->
<!DOCTYPE svg PUBLIC "-//W3C//DTD SVG 1.1//EN" "http://www.w3.org/Graphics/SVG/1.1/DTD/svg11.dtd">
<svg version="1.1" id="Capa_1" xmlns="http://www.w3.org/2000/svg" xmlns:xlink="http://www.w3.org/1999/xlink" x="0px" y="0px"
	 width="512px" height="512px" viewBox="0 0 512 512" style="enable-background:new 0 0 512 512;" xml:space="preserve">
<g>
	<g>
		<path d="M256,0C114.625,0,0,114.609,0,256c0,141.391,114.625,256,256,256c141.406,0,256-114.609,256-256
			C512,114.609,397.406,0,256,0z M256,472c-119.281,0-216-96.703-216-216S136.719,40,256,40c119.312,0,216,96.703,216,216
			S375.312,472,256,472z"/>
		<path d="M312.188,335.281c-13.516,0-33.297-15.125-50.75-28.469c-21.655-16.547-44.062-33.656-66.875-33.656
			c-42.75,0-65.609,29.266-66.562,30.5l26.328,19.844c0.141-0.172,14.109-17.531,40.234-17.531c11.594,0,30.25,14.281,46.719,26.828
			c22.702,17.359,46.172,35.297,70.905,35.297c45.484,0,70.767-34.406,71.812-35.844l-26.812-19.172
			C356.5,313.984,340.359,335.281,312.188,335.281z"/>
		<path d="M312.188,206.031c-13.516,0-33.297-15.125-50.75-28.477c-21.655-16.531-44.062-33.648-66.875-33.648
			c-42.75,0-65.609,29.266-66.562,30.516l26.328,19.836c0.141-0.18,14.109-17.539,40.234-17.539
			c11.594,0,30.25,14.266,46.719,26.844c22.702,17.344,46.172,35.281,70.905,35.281c45.484,0,70.767-34.391,71.812-35.844
			l-26.812-19.18C356.5,184.727,340.359,206.031,312.188,206.031z"/>
		<path d="M312.188,270.906c-13.516,0-33.297-15.141-50.75-28.469c-21.655-16.547-44.062-33.656-66.875-33.656
			c-42.75,0-65.609,29.266-66.562,30.5l26.328,19.844c0.141-0.188,14.109-17.531,40.234-17.531c11.594,0,30.25,14.266,46.719,26.844
			c22.702,17.345,46.172,35.281,70.905,35.281c45.484,0,70.767-34.406,71.812-35.844l-26.812-19.188
			C356.5,249.594,340.359,270.906,312.188,270.906z"/>
	</g>
</g>
<g>
</g>
<g>
</g>
<g>
</g>
<g>
</g>
<g>
</g>
<g>
</g>
<g>
</g>
<g>
</g>
<g>
</g>
<g>
</g>
<g>
</g>
<g>
</g>
<g>
</g>
<g>
</g>
<g>
</g>
</svg>
