<?xml version="1.0" standalone="no"?>
<!DOCTYPE svg PUBLIC "-//W3C//DTD SVG 20010904//EN"
 "http://www.w3.org/TR/2001/REC-SVG-20010904/DTD/svg10.dtd">
<svg version="1.0" xmlns="http://www.w3.org/2000/svg"
 width="16.000000pt" height="16.000000pt" viewBox="0 0 16.000000 16.000000"
 preserveAspectRatio="xMidYMid meet">
<metadata>
Created by potrace 1.11, written by Peter Selinger 2001-2013
</metadata>
<g transform="translate(0.000000,16.000000) scale(0.006250,-0.006250)"
fill="#000000" stroke="none">
<path d="M1392 2492 c-17 -3 -21 -8 -18 -28 5 -24 -1 -28 -36 -25 -10 1 -18
-4 -18 -13 0 -9 -6 -16 -13 -16 -10 0 -13 -17 -12 -67 1 -85 -1 -93 -31 -93
-15 0 -24 -6 -24 -15 0 -8 -6 -15 -14 -15 -9 0 -16 -12 -18 -27 -3 -24 -8 -28
-36 -28 -18 0 -36 -5 -40 -11 -4 -7 -18 -14 -32 -15 -17 -3 -25 -10 -25 -24 0
-11 -12 -31 -27 -45 -20 -17 -28 -34 -28 -57 0 -31 -10 -39 -42 -34 -8 1 -9
-4 -12 -49 0 -14 -5 -25 -11 -25 -5 0 -12 -20 -15 -45 -3 -30 -10 -45 -20 -46
-8 -1 -21 -2 -28 -3 -7 0 -10 -5 -7 -11 3 -5 -1 -10 -9 -10 -9 0 -16 -11 -18
-27 -3 -24 -8 -28 -36 -29 -19 0 -37 -6 -41 -13 -5 -7 -26 -14 -47 -15 -35 -2
-39 -5 -39 -29 1 -16 -5 -27 -12 -27 -8 0 -13 -12 -13 -29 0 -24 4 -28 19 -24
19 5 35 -11 36 -36 0 -8 11 -16 25 -18 13 -2 28 -10 33 -18 4 -9 12 -13 16
-11 4 3 7 -7 7 -22 -1 -21 4 -28 24 -31 14 -1 28 -8 32 -15 4 -6 22 -11 40
-11 29 0 33 -4 36 -27 2 -17 9 -28 18 -28 9 0 14 -6 11 -12 -2 -7 -10 -12 -16
-11 -6 2 -11 -10 -11 -27 0 -28 -2 -30 -39 -30 -26 0 -41 -5 -45 -16 -3 -8
-16 -15 -28 -14 -41 4 -59 0 -53 -10 3 -5 0 -11 -7 -11 -7 -1 -20 -2 -28 -3
-11 -1 -15 -13 -15 -41 0 -35 3 -40 23 -39 21 1 24 -2 26 -36 1 -10 14 -16 44
-18 27 -2 42 -8 42 -17 0 -10 12 -13 45 -11 25 1 49 0 53 -3 5 -3 8 -41 8 -83
0 -58 -3 -78 -13 -78 -7 0 -13 -6 -13 -13 0 -10 -20 -13 -76 -12 -77 1 -98
-10 -87 -42 3 -9 -9 -13 -41 -13 -34 0 -46 -4 -46 -15 0 -8 -4 -15 -10 -15 -5
0 -10 -11 -10 -25 0 -24 -12 -30 -48 -26 -6 1 -12 -5 -12 -14 0 -8 -6 -15 -13
-15 -9 0 -13 -10 -12 -28 3 -40 -4 -52 -31 -52 -22 0 -24 -4 -24 -56 0 -55 -1
-56 -25 -52 -14 3 -25 2 -26 -1 -3 -19 -4 -228 -1 -237 1 -6 14 -9 28 -6 22 4
24 1 24 -37 0 -40 6 -46 37 -42 7 1 13 -2 14 -6 1 -4 2 -21 4 -38 1 -16 3 -33
4 -37 0 -4 13 -5 29 -4 39 5 52 -3 52 -30 0 -24 0 -24 108 -21 87 2 107 5 108
17 1 8 2 20 3 26 1 7 17 11 39 10 25 -1 36 3 34 11 -2 13 9 17 41 14 14 -2 17
6 17 37 0 26 5 42 15 46 10 3 15 19 15 46 0 26 4 39 12 38 9 -2 13 25 13 105
0 111 1 113 43 108 6 -1 12 5 12 14 0 8 6 15 14 15 8 0 16 7 20 15 3 8 9 15
13 14 24 -4 33 4 33 26 0 15 6 25 14 25 8 0 17 7 20 16 3 9 13 14 20 11 18 -7
34 12 31 36 -2 12 2 17 13 15 13 -2 15 -15 13 -70 -2 -65 -1 -67 20 -63 13 3
27 -2 33 -11 9 -11 25 -14 61 -12 l50 3 -1 38 c0 23 4 37 12 37 6 0 15 7 18
16 3 9 15 14 28 12 20 -3 22 1 24 64 l2 67 -41 3 -42 3 0 132 c0 99 3 134 12
137 9 4 13 -4 13 -24 0 -25 4 -30 25 -30 13 0 28 -6 32 -13 4 -7 18 -14 31
-14 49 -2 54 -3 49 -16 -11 -28 10 -39 68 -38 58 0 80 12 70 39 -3 7 5 12 18
13 54 3 62 5 60 17 -2 7 8 12 27 12 27 0 30 3 30 30 0 19 5 29 13 27 8 -1 12
11 12 36 0 20 3 38 8 38 4 1 17 2 29 3 19 1 22 7 23 41 0 28 4 40 15 41 8 1
20 2 26 3 7 1 10 47 10 134 -1 110 -4 132 -16 133 -8 1 -21 2 -28 3 -8 0 -13
11 -12 24 4 46 0 58 -17 55 -27 -4 -42 10 -36 32 4 15 14 20 42 21 20 1 43 2
51 3 13 1 15 30 15 201 l0 200 -27 3 c-16 2 -28 9 -28 16 0 7 -10 13 -22 13
-54 1 -58 3 -58 28 0 22 -4 25 -39 25 -26 0 -41 5 -45 16 -3 9 -15 14 -28 12
-18 -2 -23 2 -23 22 0 20 -6 26 -27 28 -16 2 -28 9 -28 18 0 10 -12 14 -40 14
-29 0 -40 -4 -40 -15 0 -10 -10 -15 -29 -15 l-28 0 1 94 c1 85 -1 96 -18 100
-10 3 -15 9 -11 16 4 6 1 11 -6 9 -36 -4 -49 2 -49 25 0 22 -5 24 -47 28 -27
1 -58 2 -71 0z"/>
</g>
</svg>
