<?xml version="1.0" encoding="iso-8859-1"?>
<!-- Generator: Adobe Illustrator 16.0.0, SVG Export Plug-In . SVG Version: 6.00 Build 0)  -->
<!DOCTYPE svg PUBLIC "-//W3C//DTD SVG 1.1//EN" "http://www.w3.org/Graphics/SVG/1.1/DTD/svg11.dtd">
<svg version="1.1" id="Capa_1" xmlns="http://www.w3.org/2000/svg" xmlns:xlink="http://www.w3.org/1999/xlink" x="0px" y="0px"
	 width="513px" height="513px" viewBox="0 0 513 513" style="enable-background:new 0 0 513 513;" xml:space="preserve">
<g fill="#fff">
	<g>
		<path d="M200,318.966c-16-4.635-7.93-7.499-18.514-7.499c-25.814,0-41.969,16.406-41.969,36.635
			c0,20.241,12.41,36.648,38.227,36.648c25.831,0,38.256-16.407,38.256-36.648V238.167l112-54.951v117.417
			c-16-4.634-6.475-7.482-17.057-7.482c-25.801,0-41.25,16.406-41.25,36.634c0,20.243,11.33,36.649,37.146,36.649
			c25.831,0,37.16-16.406,37.16-36.649V128.25l-144,73.284L200,318.966L200,318.966z"/>
		<path d="M256.5,0C114.849,0,0,114.833,0,256.5S114.849,513,256.5,513C398.183,513,513,398.167,513,256.5S398.183,0,256.5,0z
			 M256.5,472.922c-119.515,0-216.422-96.893-216.422-216.422c0-119.53,96.907-216.422,216.422-216.422
			c119.546,0,216.422,96.892,216.422,216.422C472.922,376.029,376.046,472.922,256.5,472.922z"/>
	</g>
</g>
<g>
</g>
<g>
</g>
<g>
</g>
<g>
</g>
<g>
</g>
<g>
</g>
<g>
</g>
<g>
</g>
<g>
</g>
<g>
</g>
<g>
</g>
<g>
</g>
<g>
</g>
<g>
</g>
<g>
</g>
</svg>
