<?xml version="1.0" encoding="iso-8859-1"?>
<!-- Generator: Adobe Illustrator 16.0.0, SVG Export Plug-In . SVG Version: 6.00 Build 0)  -->
<!DOCTYPE svg PUBLIC "-//W3C//DTD SVG 1.1//EN" "http://www.w3.org/Graphics/SVG/1.1/DTD/svg11.dtd">
<svg version="1.1" id="Capa_1" xmlns="http://www.w3.org/2000/svg" xmlns:xlink="http://www.w3.org/1999/xlink" x="0px" y="0px"
	 width="512px" height="512px" viewBox="0 0 512 512" style="enable-background:new 0 0 512 512;" xml:space="preserve">
<g>
	<path d="M256,0C114.609,0,0,114.609,0,256c0,141.391,114.609,256,256,256c141.391,0,256-114.609,256-256
		C512,114.609,397.391,0,256,0z M256,472c-119.297,0-216-96.703-216-216S136.703,40,256,40s216,96.703,216,216S375.297,472,256,472z
		"/>
	<path d="M367.766,223.875l-0.108-32.141l-14.031-8L255.688,128l-97.672,56.188L144,192.266l0.078,31.828l0.234,96.156
		l83.594,47.594L242.234,376l13.812,7.844l0.267,0.156l28.062-16.141L368,319.734L367.766,223.875z M255.781,160.156l69.812,39.719
		l-69.641,40.062l-69.828-39.734L255.781,160.156z M172.344,304.109l-0.203-79.767l69.547,39.578l0.219,79.781L172.344,304.109z
		 M270.234,343.781L270.047,264l69.609-40.062l0.25,79.812L270.234,343.781z"/>
</g>
<g>
</g>
<g>
</g>
<g>
</g>
<g>
</g>
<g>
</g>
<g>
</g>
<g>
</g>
<g>
</g>
<g>
</g>
<g>
</g>
<g>
</g>
<g>
</g>
<g>
</g>
<g>
</g>
<g>
</g>
</svg>
