<?xml version="1.0" encoding="iso-8859-1"?>
<!-- Generator: Adobe Illustrator 16.0.0, SVG Export Plug-In . SVG Version: 6.00 Build 0)  -->
<!DOCTYPE svg PUBLIC "-//W3C//DTD SVG 1.1//EN" "http://www.w3.org/Graphics/SVG/1.1/DTD/svg11.dtd">
<svg version="1.1" id="Capa_1" xmlns="http://www.w3.org/2000/svg" xmlns:xlink="http://www.w3.org/1999/xlink" x="0px" y="0px"
	 width="512px" height="512px" viewBox="0 0 512 512" style="enable-background:new 0 0 512 512;" xml:space="preserve">
<g>
	<path d="M256,0C114.609,0,0,114.609,0,256c0,141.391,114.609,256,256,256c141.391,0,256-114.609,256-256
		C512,114.609,397.391,0,256,0z M256,472c-119.297,0-216-96.703-216-216S136.703,40,256,40s216,96.703,216,216S375.297,472,256,472z
		"/>
	<path d="M255.5,128c-35.281,0-64,25.125-64,56v48v96v12c0,24.266,18.719,44,46.453,44s49.547-19.734,49.547-44v-78.75V232v-11.25
		c0-11.844-10.453-21.5-24.016-21.5c-13.531,0-23.984,9.656-23.984,21.5v40.5c0,11.859,11.609,21.5,25.141,21.5
		c2.25,0,6.859-0.625,6.859-1.109V340c0,15.438-15.891,28-33.531,28c-17.64,0-30.469-12.562-30.469-28v-12v-96v-48
		c0-22.062,22.797-40,48-40s48,17.938,48,40v144c0,4.422,2.938,8,8,8c5.047,0,8-3.578,8-8V184C319.5,153.125,290.781,128,255.5,128z
		 M263.5,266.75c-3.453,0-8-2.469-8-5.5v-40.5c0-3.031,4.547-5.5,8-5.5c3.469,0,8,2.469,8,5.5V232v29.25
		C271.5,264.281,266.969,266.75,263.5,266.75z"/>
</g>
<g>
</g>
<g>
</g>
<g>
</g>
<g>
</g>
<g>
</g>
<g>
</g>
<g>
</g>
<g>
</g>
<g>
</g>
<g>
</g>
<g>
</g>
<g>
</g>
<g>
</g>
<g>
</g>
<g>
</g>
</svg>
