<?xml version="1.0" encoding="iso-8859-1"?>
<!-- Generator: Adobe Illustrator 16.0.0, SVG Export Plug-In . SVG Version: 6.00 Build 0)  -->
<!DOCTYPE svg PUBLIC "-//W3C//DTD SVG 1.1//EN" "http://www.w3.org/Graphics/SVG/1.1/DTD/svg11.dtd">
<svg version="1.1" id="Capa_1" xmlns="http://www.w3.org/2000/svg" xmlns:xlink="http://www.w3.org/1999/xlink" x="0px" y="0px"
	 width="512px" height="512px" viewBox="0 0 512 512" style="enable-background:new 0 0 512 512;" xml:space="preserve">
<g>
	<path d="M0,256c0,141.391,114.609,256,256,256c141.391,0,256-114.609,256-256C512,114.609,397.391,0,256,0
		C114.609,0,0,114.609,0,256z M472,256c0,119.297-96.703,216-216,216S40,375.297,40,256S136.703,40,256,40S472,136.703,472,256z"/>
	<g>
		<rect x="223.953" y="128" width="64" height="16"/>
		<rect x="223.953" y="160" width="64" height="16"/>
		<rect x="223.953" y="192" width="64" height="16"/>
		<polygon points="192,320 256,384 320,320 287.953,320 287.953,256 223.953,256 223.953,320 		"/>
		<rect x="223.953" y="224" width="64" height="16"/>
	</g>
</g>
<g>
</g>
<g>
</g>
<g>
</g>
<g>
</g>
<g>
</g>
<g>
</g>
<g>
</g>
<g>
</g>
<g>
</g>
<g>
</g>
<g>
</g>
<g>
</g>
<g>
</g>
<g>
</g>
<g>
</g>
</svg>
