<?xml version="1.0" encoding="iso-8859-1"?>
<!-- Generator: Adobe Illustrator 16.0.0, SVG Export Plug-In . SVG Version: 6.00 Build 0)  -->
<!DOCTYPE svg PUBLIC "-//W3C//DTD SVG 1.1//EN" "http://www.w3.org/Graphics/SVG/1.1/DTD/svg11.dtd">
<svg version="1.1" id="Capa_1" xmlns="http://www.w3.org/2000/svg" xmlns:xlink="http://www.w3.org/1999/xlink" x="0px" y="0px"
	 width="512px" height="512px" viewBox="0 0 512 512" style="enable-background:new 0 0 512 512;" xml:space="preserve">
<g>
	<path d="M256,0C114.609,0,0,114.609,0,256c0,141.391,114.609,256,256,256c141.391,0,256-114.609,256-256
		C512,114.609,397.391,0,256,0z M256,472c-119.297,0-216-96.703-216-216S136.703,40,256,40s216,96.703,216,216S375.297,472,256,472z
		"/>
	<path d="M272.562,361.891L271.016,368H192l1.984-6.109c7.922-0.219,13.172-1,15.719-2.312c4.141-1.875,7.219-4.47,9.203-7.767
		c3.109-5.172,6.312-14.422,9.625-27.75l33.407-135.125c2.844-11.25,4.25-19.719,4.25-25.438c0-2.875-0.625-5.297-1.828-7.281
		c-1.234-1.969-3.094-3.5-5.594-4.531c-2.517-1.062-7.392-1.578-14.673-1.578l1.719-6.109H320l-1.562,6.109
		c-6.03-0.109-10.516,0.672-13.453,2.312c-4.233,2.203-7.483,5.344-9.688,9.422c-2.234,4.062-5.078,13.094-8.578,27.094
		l-33.266,135.125c-3.016,12.438-4.531,20.375-4.531,23.781c0,2.75,0.578,5.094,1.766,7.031c1.188,1.922,3.078,3.406,5.656,4.453
		C258.938,360.375,264.359,361.234,272.562,361.891z"/>
</g>
<g>
</g>
<g>
</g>
<g>
</g>
<g>
</g>
<g>
</g>
<g>
</g>
<g>
</g>
<g>
</g>
<g>
</g>
<g>
</g>
<g>
</g>
<g>
</g>
<g>
</g>
<g>
</g>
<g>
</g>
</svg>
