<?xml version="1.0" encoding="iso-8859-1"?>
<!-- Generator: Adobe Illustrator 16.0.0, SVG Export Plug-In . SVG Version: 6.00 Build 0)  -->
<!DOCTYPE svg PUBLIC "-//W3C//DTD SVG 1.1//EN" "http://www.w3.org/Graphics/SVG/1.1/DTD/svg11.dtd">
<svg version="1.1" id="Capa_1" xmlns="http://www.w3.org/2000/svg" xmlns:xlink="http://www.w3.org/1999/xlink" x="0px" y="0px"
	 width="612px" height="612px" viewBox="0 0 612 612" style="enable-background:new 0 0 612 612;" xml:space="preserve">
<g>
	<path d="M306,0C136.994,0,0,136.994,0,306c0,169.007,136.994,306,306,306c169.007,0,306-136.993,306-306
		C612,136.994,475.007,0,306,0z M306,564.188c-142.597,0-258.188-115.59-258.188-258.188c0-142.597,115.59-258.188,258.188-258.188
		c142.598,0,258.188,115.59,258.188,258.188C564.188,448.598,448.598,564.188,306,564.188z M315.562,210.375h-19.125v-38.25h19.125
		V210.375z M296.438,401.625h19.125v38.25h-19.125V401.625z M380.369,245.146l-13.521-13.521l27.044-27.044l13.521,13.521
		L380.369,245.146z M231.629,366.853l13.521,13.521l-27.044,27.045l-13.521-13.521L231.629,366.853z M231.63,245.148l-27.044-27.044
		l13.521-13.521l27.044,27.044L231.63,245.148z M380.37,366.854l27.044,27.044l-13.521,13.521l-27.044-27.044L380.37,366.854z
		 M210.375,315.562h-38.25v-19.125h38.25V315.562z M401.625,296.438h38.25v19.125h-38.25V296.438z M306,229.5
		c-42.191,0-76.5,34.328-76.5,76.5s34.309,76.5,76.5,76.5c42.172,0,76.5-34.328,76.5-76.5S348.172,229.5,306,229.5z M306,363.375
		v-114.75c31.639,0,57.375,25.736,57.375,57.375S337.639,363.375,306,363.375z"/>
</g>
<g>
</g>
<g>
</g>
<g>
</g>
<g>
</g>
<g>
</g>
<g>
</g>
<g>
</g>
<g>
</g>
<g>
</g>
<g>
</g>
<g>
</g>
<g>
</g>
<g>
</g>
<g>
</g>
<g>
</g>
</svg>
