<?xml version="1.0" encoding="iso-8859-1"?>
<!-- Generator: Adobe Illustrator 16.0.0, SVG Export Plug-In . SVG Version: 6.00 Build 0)  -->
<!DOCTYPE svg PUBLIC "-//W3C//DTD SVG 1.1//EN" "http://www.w3.org/Graphics/SVG/1.1/DTD/svg11.dtd">
<svg version="1.1" id="Capa_1" xmlns="http://www.w3.org/2000/svg" xmlns:xlink="http://www.w3.org/1999/xlink" x="0px" y="0px"
	 width="512.008px" height="512.008px" viewBox="0 0 512.008 512.008" style="enable-background:new 0 0 512.008 512.008;"
	 xml:space="preserve">
<g>
	<path d="M256.012,512.008C397.42,512.008,512,397.396,512,256.004C512,114.611,397.42,0,256.012,0
		C114.635,0,0.008,114.611,0.008,256.004C0.008,397.396,114.635,512.008,256.012,512.008z M256.012,40.001
		c119.314,0,216.003,96.705,216.003,216.003s-96.688,216.004-216.003,216.004c-119.283,0-216.004-96.705-216.004-216.004
		S136.729,40.001,256.012,40.001z"/>
	<polygon points="272.004,352.006 384.006,256.004 272.004,160.002 272.004,208.003 128.002,208.003 128.002,304.004 
		272.004,304.004 	"/>
</g>
<g>
</g>
<g>
</g>
<g>
</g>
<g>
</g>
<g>
</g>
<g>
</g>
<g>
</g>
<g>
</g>
<g>
</g>
<g>
</g>
<g>
</g>
<g>
</g>
<g>
</g>
<g>
</g>
<g>
</g>
</svg>
