<?xml version="1.0" encoding="iso-8859-1"?>
<!-- Generator: Adobe Illustrator 16.0.0, SVG Export Plug-In . SVG Version: 6.00 Build 0)  -->
<!DOCTYPE svg PUBLIC "-//W3C//DTD SVG 1.1//EN" "http://www.w3.org/Graphics/SVG/1.1/DTD/svg11.dtd">
<svg version="1.1" id="Capa_1" xmlns="http://www.w3.org/2000/svg" xmlns:xlink="http://www.w3.org/1999/xlink" x="0px" y="0px"
	 width="512px" height="512px" viewBox="0 0 512 512" style="enable-background:new 0 0 512 512;" xml:space="preserve">
<g>
	<path d="M256,0C114.609,0,0,114.609,0,256c0,141.391,114.609,256,256,256c141.391,0,256-114.609,256-256
		C512,114.609,397.391,0,256,0z M256,472c-119.297,0-216-96.703-216-216S136.703,40,256,40s216,96.703,216,216S375.297,472,256,472z
		"/>
	<g>
		<g>
			<path d="M368,274.672v-37.328h-20.547c-0.75-3.703-2.109-7.156-3.281-10.688l18.141-10.469l-18.672-32.336l-18.094,10.445
				c-2.469-2.766-5.078-5.367-7.844-7.828l10.469-18.109l-32.328-18.672l-10.469,18.156c-3.547-1.18-6.984-2.539-10.703-3.297V144
				h-37.344v20.547c-3.688,0.758-7.141,2.117-10.656,3.281l-10.484-18.141l-32.344,18.656l10.453,18.117
				c-2.766,2.461-5.359,5.047-7.828,7.82l-18.109-10.461l-18.672,32.336l18.156,10.469c-1.188,3.547-2.547,7-3.297,10.719H144
				v37.328h20.547c0.75,3.703,2.109,7.156,3.281,10.672l-18.172,10.5l18.672,32.345l18.141-10.47
				c2.469,2.781,5.062,5.375,7.844,7.828l-10.469,18.142l32.328,18.672l10.5-18.188c3.516,1.172,6.969,2.547,10.656,3.281V368
				h37.344v-20.547c3.688-0.734,7.156-2.109,10.703-3.297l10.469,18.188l32.345-18.672l-10.47-18.141
				c2.781-2.469,5.359-5.062,7.845-7.844l18.125,10.469l18.655-32.344l-18.172-10.5c1.172-3.517,2.531-6.938,3.281-10.642
				L368,274.672L368,274.672z M256,312c-30.906,0-56-25.062-56-56c0-30.906,25.094-56,56-56c30.938,0,56,25.094,56,56
				C312,286.938,286.938,312,256,312z M256,237.344c-10.312,0-18.672,8.344-18.672,18.656c0,10.312,8.359,18.672,18.672,18.672
				c10.312,0,18.672-8.359,18.672-18.672C274.672,245.687,266.312,237.344,256,237.344z"/>
		</g>
	</g>
</g>
<g>
</g>
<g>
</g>
<g>
</g>
<g>
</g>
<g>
</g>
<g>
</g>
<g>
</g>
<g>
</g>
<g>
</g>
<g>
</g>
<g>
</g>
<g>
</g>
<g>
</g>
<g>
</g>
<g>
</g>
</svg>
