<?xml version="1.0" encoding="iso-8859-1"?>
<!-- Generator: Adobe Illustrator 16.0.0, SVG Export Plug-In . SVG Version: 6.00 Build 0)  -->
<!DOCTYPE svg PUBLIC "-//W3C//DTD SVG 1.1//EN" "http://www.w3.org/Graphics/SVG/1.1/DTD/svg11.dtd">
<svg version="1.1" id="Capa_1" xmlns="http://www.w3.org/2000/svg" xmlns:xlink="http://www.w3.org/1999/xlink" x="0px" y="0px"
	 width="512px" height="512px" viewBox="0 0 512 512" style="enable-background:new 0 0 512 512;" xml:space="preserve">
<g>
	<path d="M256,0C114.609,0,0,114.609,0,256c0,141.391,114.609,256,256,256c141.391,0,256-114.609,256-256
		C512,114.609,397.391,0,256,0z M256,472c-119.297,0-216-96.703-216-216S136.703,40,256,40s216,96.703,216,216S375.297,472,256,472z
		"/>
	<path d="M256,128c-70.688,0-128,57.312-128,128c0,70.688,57.312,128,128,128c70.688,0,128-57.312,128-128
		C384,185.312,326.688,128,256,128z M144.406,264h57.312c0.719,15.422,3.344,32.266,6.547,48h-49.109
		C150.844,297.688,145.641,281.406,144.406,264z M201.719,248h-57.312c1.234-17.406,6.438-33.688,14.75-48h49.109
		C205.062,215.734,202.438,232.578,201.719,248z M224.281,200h63.438c3.219,15.75,5.844,32.609,6.562,48h-76.562
		C218.438,232.609,221.062,215.75,224.281,200z M217.719,264h76.562c-0.719,15.391-3.344,32.234-6.562,48h-63.438
		C221.062,296.234,218.438,279.391,217.719,264z M310.281,264h57.312c-1.233,17.406-6.438,33.688-14.75,48h-49.108
		C306.953,296.266,309.562,279.422,310.281,264z M310.281,248c-0.719-15.422-3.328-32.266-6.547-48h49.108
		c8.312,14.312,13.517,30.594,14.75,48H310.281z M341.672,184h-41.484c-3.358-14.188-6.797-26.375-9.172-34.312
		C310.953,156.266,328.422,168.281,341.672,184z M273.75,145.547c2.266,7.359,6.406,21.484,10.422,38.453h-56.344
		c4.016-16.969,8.156-31.094,10.422-38.453C244.047,144.625,249.938,144,256,144C262.062,144,267.953,144.625,273.75,145.547z
		 M221,149.688c-2.375,7.938-5.828,20.125-9.188,34.312h-41.469C183.562,168.281,201.047,156.266,221,149.688z M170.344,328h41.469
		c3.359,14.188,6.797,26.375,9.172,34.312C201.047,355.734,183.578,343.719,170.344,328z M238.25,366.453
		c-2.266-7.359-6.406-21.484-10.422-38.453h56.344c-4.016,16.953-8.141,31.094-10.406,38.453C267.969,367.375,262.062,368,256,368
		C249.938,368,244.047,367.375,238.25,366.453z M291.016,362.312c2.392-7.938,5.828-20.125,9.188-34.312h41.453
		C328.422,343.719,310.953,355.719,291.016,362.312z"/>
</g>
<g>
</g>
<g>
</g>
<g>
</g>
<g>
</g>
<g>
</g>
<g>
</g>
<g>
</g>
<g>
</g>
<g>
</g>
<g>
</g>
<g>
</g>
<g>
</g>
<g>
</g>
<g>
</g>
<g>
</g>
</svg>
